<svg xmlns="http://www.w3.org/2000/svg" viewBox="0 0 360 360"><defs><style>.cls-1{fill:#727272;}.cls-2{fill:none;stroke:#fff;stroke-miterlimit:10;stroke-width:4px;}</style></defs><g id="design"><rect class="cls-1" width="360" height="360"/></g><g id="design_2" data-name="design 2"><path class="cls-2" d="M65.43,281.85v14.69l229.14-.72V63.58L65.79,63.46l-.36,20.3H93.49L71,105.37l22.69,22-27.82.12-.36,31.17c9.11-2.48,18.44.09,23.76,6.56A21.45,21.45,0,0,1,93.85,179a20,20,0,0,1-4.54,12.3,20.48,20.48,0,0,1-7.76,5.5,28.72,28.72,0,0,1-15.88,2Z"/><path class="cls-2" d="M132.18,158.57H105.07l.06,41,27.17.06"/><line class="cls-2" x1="124" y1="178.88" x2="105.1" y2="178.88"/><path class="cls-2" d="M169.78,163.46c-4.14-2.18-8.37-4.38-13-5.15s-9.75.12-13,3.44-3.93,9.34-.56,12.58a10.79,10.79,0,0,0,4,2.27c4,1.36,8.37,1.33,12.5,2.3s8.39,3.42,9.53,7.5a9.77,9.77,0,0,1-1.62,8c-3,4.37-8.68,6.46-14,6a23.26,23.26,0,0,1-14.76-7.52"/><path class="cls-2" d="M120.24,236.6a20.34,20.34,0,0,0-35.11,16.71,20,20,0,0,0,5.2,12.48,20.35,20.35,0,0,0,14.45,6.27,19.23,19.23,0,0,0,14.09-6.33,19,19,0,0,0,4.53-13.31H106.33"/><path class="cls-2" d="M140.72,272.9q.34-19.9.7-39.81l27.89,36.76,1.26-40.66"/><path class="cls-2" d="M134.14,90c-4.14-2.18-8.37-4.38-13-5.15S111.4,85,108.1,88.3s-3.93,9.34-.56,12.58a10.79,10.79,0,0,0,4,2.27c4,1.36,8.38,1.33,12.51,2.3s8.39,3.42,9.52,7.5a9.76,9.76,0,0,1-1.61,8c-3,4.37-8.68,6.46-14,6a23.29,23.29,0,0,1-14.76-7.52"/><rect class="cls-1" x="61.46" y="225.3" width="6.99" height="5.1"/><rect class="cls-1" x="61.93" y="272.27" width="6.99" height="5.1"/></g></svg>